<svg viewBox="0 0 25 20" height="24" width="24" fill="none" xmlns="http://www.w3.org/2000/svg" stroke="currentColor" stroke-width="2" stroke-linecap="round" stroke-linejoin="round">
  <path d="M1 4.83333L11.0817 11.5544C11.5016 11.8346 11.9952 11.9842 12.5 11.9842C13.0048 11.9842 13.4984 11.8346 13.9183 11.5544L24 4.83333M3.55556 18.8889H21.4444C22.1222 18.8889 22.7722 18.6196 23.2515 18.1404C23.7308 17.6611 24 17.0111 24 16.3333V3.55556C24 2.87778 23.7308 2.22776 23.2515 1.7485C22.7722 1.26925 22.1222 1 21.4444 1H3.55556C2.87778 1 2.22776 1.26925 1.7485 1.7485C1.26925 2.22776 1 2.87778 1 3.55556V16.3333C1 17.0111 1.26925 17.6611 1.7485 18.1404C2.22776 18.6196 2.87778 18.8889 3.55556 18.8889Z" />
</svg>
